<svg xmlns="http://www.w3.org/2000/svg" viewBox="0 0 450 418.16"><title>pion-logo-final-2</title><path d="M245.89,71.06c-2.72-2.77-5.42-5.38-8.16-7.9-29.49,19.91-59.84,47.05-87.8,80.18-6.4,7.59-12.35,15.25-18.09,22.95.78,3.4,1.7,6.87,2.6,10.32,6.65-9.42,13.85-18.81,21.66-28.07C184.69,114.64,216.28,88.07,245.89,71.06Z" transform="translate(0 -1.38)" style="fill:#fff"/><path d="M241.62,75c-2.72-2.76-5.43-5.37-8.16-7.89-29.49,19.91-59.84,47-87.8,80.17-6.4,7.59-12.36,15.25-18.09,23,.78,3.39,1.7,6.86,2.6,10.31,6.65-9.41,13.85-18.81,21.66-28.07C180.42,118.59,212,92,241.62,75Z" transform="translate(0 -1.38)" style="fill:#2cab83"/><path d="M370.86,38.13C345,16.3,298.37,25.2,248,56.5c2.67,2.92,5.32,6.06,8,9.17,35.51-18,67.22-21.45,86-5.62C377.78,90.3,352.73,179,286,258.11S136,376.86,100.14,346.6c-27.6-23.29-19-81.19,16.8-142.7-1.26-3.76-2.36-7.45-3.51-11.14-50.9,79.05-65.27,156.32-30,186.08C126,414.8,225,367.71,304.34,273.61S413.49,74.1,370.86,38.13Z" transform="translate(0 -1.38)" style="fill:#fff"/><path d="M366.59,42.08C340.73,20.25,294.1,29.15,243.71,60.45c2.68,2.91,5.32,6.06,8,9.18,35.51-18,67.22-21.46,86-5.63,35.86,30.25,10.82,118.93-55.94,198.06s-150,118.74-185.83,88.5c-27.6-23.3-19-81.19,16.8-142.7-1.27-3.76-2.36-7.46-3.51-11.15-50.9,79.06-65.27,156.32-30,186.08,42.62,36,141.53-11.13,220.92-105.23S409.22,78.05,366.59,42.08Z" transform="translate(0 -1.38)" style="fill:#2cab83"/><path d="M134.62,5.71c-50.75,23.16-50.47,132.72.63,244.69s133.67,184,184.41,160.85,50.47-132.72-.63-244.7S185.37-17.45,134.62,5.71Zm177.62,370c-42.7,19.47-112.15-41.09-155.12-135.28S113.91,54.09,156.6,34.6,268.73,75.7,311.7,169.89,354.92,356.22,312.24,375.7Z" transform="translate(0 -1.38)" style="fill:#fff"/><path d="M130.35,9.66C79.6,32.82,79.87,142.38,131,254.35s133.67,184,184.42,160.86,50.46-132.73-.63-244.7S181.1-13.5,130.35,9.66ZM308,379.66c-42.7,19.46-112.15-41.1-155.12-135.29s-43.21-186.32-.52-205.82,112.13,41.12,155.1,135.29S350.64,360.17,308,379.66Z" transform="translate(0 -1.38)" style="fill:#ff5944"/><path d="M374.54,151.9c23.5,14.53,40.42,32,40.16,51.18C414,250,329.59,286.87,226.08,285.44S39.16,244.81,39.79,197.89q.51-36.79,55.82-59.22c-.61-4.06-1.1-8.62-1.56-12.57C37.4,143.65,4.74,171.54,4.27,205.39c-.76,55.78,98.38,102.38,221.46,104.09S449.23,267.35,450,211.57c.39-28.7-28.43-55.68-70.62-74.63C378,141.49,376.26,147.21,374.54,151.9Z" transform="translate(0 -1.38)" style="fill:#fff"/><path d="M289.73,112.29c2,3.27,4.13,6.54,6.11,9.94,21.16,4,37.16,9.58,53.74,16.56,1.06-3.91,1.88-8.22,2.64-12A348,348,0,0,0,289.73,112.29Z" transform="translate(0 -1.38)" style="fill:#fff"/><path d="M277.18,119.13c-2.06-3.23-4.17-6.1-6.29-9.15-16-1.9-25.23-2.28-42.36-2.5-37.3-.52-72.46,3.21-103.47,10.12.16,3.38.41,6.88.71,10.37,29.59-8.32,64.83-13,102.65-12.44C248,115.8,259.47,116.36,277.18,119.13Z" transform="translate(0 -1.38)" style="fill:#fff"/><path d="M285.46,116.24c2,3.29,4.12,6.54,6.12,10a284.77,284.77,0,0,1,56.95,16.67c1.07-3.9,1.94-7.72,2.69-11.49A385.79,385.79,0,0,0,285.46,116.24Z" transform="translate(0 -1.38)" style="fill:#fd9405"/><path d="M101.35,286.65A29.21,29.21,0,1,1,62.66,272.2,29.2,29.2,0,0,1,101.35,286.65Z" transform="translate(0 -1.38)" style="fill:#fff"/><path d="M233.85,19.46A29.21,29.21,0,1,1,195.15,5,29.23,29.23,0,0,1,233.85,19.46Z" transform="translate(0 -1.38)" style="fill:#fff"/><path d="M97.07,290.6a29.21,29.21,0,1,1-38.68-14.44A29.19,29.19,0,0,1,97.07,290.6Z" transform="translate(0 -1.38)" style="fill:#ff5944"/><path d="M373.28,155.48C396.77,170,410.69,187.85,410.43,207c-.66,46.92-85.11,83.79-188.62,82.36S34.89,248.76,35.52,201.85c.34-24.53,23.7-46.23,60.58-61.23-.62-4.07-1.22-8.1-1.68-12.05C37.77,146.12.47,175.49,0,209.34c-.77,55.78,98.38,102.38,221.46,104.09S445,271.3,445.72,215.53c.4-28.71-25.7-54.93-67.89-73.89C376.46,146.19,375,150.8,373.28,155.48Z" transform="translate(0 -1.38)" style="fill:#fd9405"/><path d="M280.25,124.16c-2.06-3.23-3.73-6.33-5.86-9.4a485.83,485.83,0,0,0-50.13-3.33c-37.3-.51-68.31,2.31-99.32,9.23.16,3.38.63,6.58.93,10.08,29.59-8.32,60.46-11.78,98.28-11.25A398.2,398.2,0,0,1,280.25,124.16Z" transform="translate(0 -1.38)" style="fill:#fd9405"/><path d="M414.05,249.88a29.21,29.21,0,1,1-38.69-14.45A29.19,29.19,0,0,1,414.05,249.88Z" transform="translate(0 -1.38)" style="fill:#fff"/><path d="M409.78,253.83a29.22,29.22,0,1,1-38.69-14.45A29.2,29.2,0,0,1,409.78,253.83Z" transform="translate(0 -1.38)" style="fill:#2cab83"/><path d="M229.57,23.42A29.21,29.21,0,1,1,190.87,9,29.21,29.21,0,0,1,229.57,23.42Z" transform="translate(0 -1.38)" style="fill:#fd9405"/><path d="M275,179.9a55.36,55.36,0,1,0-27.37,73.33A55.36,55.36,0,0,0,275,179.9Zm-60.37,41.69a25.75,25.75,0,1,1,12.73-34.11A25.76,25.76,0,0,1,214.58,221.59Z" transform="translate(0 -1.38)" style="fill:#fff"/><path d="M270.68,183.87a55.35,55.35,0,1,0-27.37,73.32A55.36,55.36,0,0,0,270.68,183.87Z" transform="translate(0 -1.38)" style="fill:#2cab83"/><path d="M265.33,193.05c-4.07,8.81-20.27,10-36.17,2.61s-25.5-20.48-21.41-29.28,20.28-10,36.17-2.6S269.42,184.26,265.33,193.05Z" transform="translate(0 -1.38)" style="fill:#fff"/><path d="M402.85,257.08c-1.87,5.06-10.26,6.63-18.75,3.5s-13.87-9.77-12-14.83,10.26-6.63,18.75-3.5S404.72,252,402.85,257.08Z" transform="translate(0 -1.38)" style="fill:#fff"/><path d="M222.64,26.47c-1.86,5.06-10.26,6.64-18.75,3.51S190,20.2,191.9,15.14s10.26-6.63,18.75-3.5S224.51,21.41,222.64,26.47Z" transform="translate(0 -1.38)" style="fill:#fff"/></svg>